<svg width="128" height="16" viewBox="0 0 128 16" fill="none" xmlns="http://www.w3.org/2000/svg">
<path fill-rule="evenodd" clip-rule="evenodd" d="M15.9999 8.04781C16.0009 3.79183 12.6694 0.280163 8.4193 0.0570701C4.16916 -0.166023 0.488381 2.97756 0.0437293 7.21026C-0.400922 11.443 2.54624 15.2828 6.74995 15.9478V10.3598H4.71895V8.04781H6.74995V6.28481C6.66141 5.45163 6.9477 4.62219 7.53131 4.02099C8.11492 3.4198 8.9355 3.10904 9.77095 3.17281C10.371 3.18069 10.9696 3.23284 11.5619 3.32881V5.29981H10.5539C10.2061 5.25433 9.8565 5.36937 9.60365 5.6125C9.3508 5.85563 9.22214 6.20048 9.25395 6.54981V8.04981H11.4729L11.1179 10.3618H9.24995V15.9528C13.1385 15.3377 16.0016 11.9848 15.9999 8.04781Z" fill="#ADADAD"/>
<path fill-rule="evenodd" clip-rule="evenodd" d="M71.8 4.8C71.6 3.5 71 2.6 69.6 2.4C67.4 2 64 2 64 2C64 2 60.6 2 58.4 2.4C57 2.6 56.3 3.5 56.2 4.8C56 6.1 56 8 56 8C56 8 56 9.9 56.2 11.2C56.4 12.5 57 13.4 58.4 13.6C60.6 14 64 14 64 14C64 14 67.4 14 69.6 13.6C71 13.3 71.6 12.5 71.8 11.2C72 9.9 72 8 72 8C72 8 72 6.1 71.8 4.8ZM62 11V5L67 8L62 11Z" fill="#ADADAD"/>
<path fill-rule="evenodd" clip-rule="evenodd" d="M112 12C112 14.056 113.944 16 116 16H124C126.056 16 128 14.056 128 12V4C128 1.944 126.056 0 124 0H116C113.944 0 112 1.944 112 4V12ZM114 4C114 3.065 115.065 2 116 2H124C124.935 2 126 3.065 126 4V12C126 12.935 124.935 14 124 14H116C115.047 14 114 12.953 114 12V4ZM125.105 3.89164C125.105 4.42183 124.675 4.85164 124.145 4.85164C123.615 4.85164 123.185 4.42183 123.185 3.89164C123.185 3.36145 123.615 2.93164 124.145 2.93164C124.675 2.93164 125.105 3.36145 125.105 3.89164ZM120 12C117.794 12 116 10.206 116 8C116 5.794 117.794 4 120 4C122.206 4 124 5.794 124 8C124 10.206 122.206 12 120 12ZM120 6C118.897 6 118 6.897 118 8C118 9.103 118.897 10 120 10C121.103 10 122 9.103 122 8C122 6.897 121.103 6 120 6Z" fill="#ADADAD"/>
</svg>
