<svg width="871" height="323" viewBox="0 0 871 323" fill="none" xmlns="http://www.w3.org/2000/svg">
<path d="M1.06975 102.6C17.1097 133.409 49.06 155.603 83.9736 157.942C114.879 159.984 148.834 146.315 163.011 117.397C175.57 91.7679 171.559 55.6851 146.757 38.6711C124.876 23.6569 90.1621 28.3081 74.8143 50.5209C59.2524 73.0274 70.8956 102.343 90.2598 118.179C113.758 137.465 145.539 135.793 172.162 124.218C207.545 108.883 232.415 78.7389 259.28 52.3152C284.345 27.6556 315.513 3.44107 352.362 2.7696C390.482 2.04763 421.505 30.2544 434.898 64.2215C441.684 81.4369 444.618 100.021 444.862 118.468C445.118 137.176 442.544 156.21 435.358 173.598C422.166 205.484 389.197 233.131 352.852 225.35C337.086 221.969 322.284 212.248 314.67 197.805C307.216 183.657 308.279 166.75 315.09 152.586C321.945 138.215 334.138 127.086 349.075 121.568C364.641 115.915 381.838 116.201 397.659 120.664C436.641 131.673 461.947 166.592 478.504 201.516C494.393 235.029 505.843 272.319 533.807 298.28C545.158 308.825 558.871 317.313 574.134 320.639C589.808 324.029 605.728 321.219 620.142 314.397C656.175 297.41 676.927 261.065 709.252 239.065C735.825 220.992 768.332 212.277 800.369 213.521C816.419 214.109 832.267 217.308 847.288 222.992C865.308 229.884 881.009 241.654 899.164 248.204C913.398 253.331 930.658 254.79 944.072 246.6C959.887 236.946 964.735 217.689 970.198 201.264C975.378 185.65 984.454 167.14 1002.52 164.271C1003.95 164.041 1003.32 161.874 1001.9 162.111C985.839 164.669 976.205 179.54 970.58 193.584C963.634 210.94 960.801 233.005 943.873 244.072C928.434 254.186 908.47 250.199 892.676 243.204C875.991 235.752 860.935 225.3 843.568 219.302C814.289 209.169 781.89 208.66 752.097 216.91C737.15 221.021 722.932 227.429 709.953 235.906C693.536 246.687 680.089 261.074 666.464 275.067C641.659 300.422 609.53 327.935 571.344 317.625C536.086 308.071 514.494 275.237 499.934 244.119C483.227 208.329 470.22 170.161 440.328 142.698C416.652 120.962 382.28 108.273 350.594 118.67C324.078 127.415 303.644 154.865 307.7 183.415C311.995 213.517 343.917 232.069 372.658 228.434C406.382 224.161 431.151 195.949 440.905 164.845C451.174 132.014 449.347 92.9934 436.113 61.2654C423.24 30.415 395.91 4.25839 361.544 0.890784C329.339 -2.26702 298.692 14.5833 274.936 34.8071C244.345 60.8715 220.319 94.8058 185.108 115.159C158.181 130.735 122.624 138.576 95.4282 119.32C73.18 103.562 59.1698 69.9171 80.2952 47.2781C90.4449 36.4079 105.94 31.5334 120.551 32.3534C136.282 33.0703 150.655 41.4767 158.992 54.8366C167.475 68.4509 169.562 85.5078 166.262 101.061C162.738 117.432 153.053 131.822 139.213 141.25C109.634 161.717 69.6323 159.621 39.7262 141.098C24.1593 131.415 11.4786 117.729 3.00901 101.47C2.33562 100.167 0.403798 101.318 1.06975 102.6Z" fill="#9A97ED"/>
</svg>
