<svg width="641" height="643" viewBox="0 0 641 643" fill="none" xmlns="http://www.w3.org/2000/svg">
<path opacity="0.3" d="M-178.292 575.408C-171.762 605.678 -147.172 629.838 -117.972 638.848C-87.7224 648.178 -55.9724 638.748 -34.7724 615.458C-14.3224 592.968 -4.67239 559.458 -15.8524 530.358C-26.3124 503.138 -56.1424 479.488 -85.9624 492.628C-111.142 503.728 -125.862 536.628 -114.872 562.328C-103.882 588.028 -73.1224 600.518 -46.5624 595.818C-13.0524 589.878 5.43762 557.318 14.8076 527.548C26.2276 491.488 27.9076 449.478 54.1876 419.938C74.9076 396.648 107.188 385.228 138.018 387.548C153.467 388.609 168.408 393.507 181.488 401.798C195.678 410.968 207.828 426.618 209.488 443.878C211.338 463.078 196.608 476.878 178.118 478.268C157.788 479.778 140.018 467.458 124.588 455.748C95.1276 433.378 65.7976 404.748 56.7176 367.588C48.7176 334.678 57.7776 295.098 89.1076 277.648C124.628 257.868 167.018 271.948 198.358 292.918C215.358 304.298 230.868 317.828 246.358 331.148C262.108 344.688 277.778 358.348 294.168 371.148C325.248 395.368 359.358 416.498 398.098 425.608C434.438 434.158 473.518 431.608 505.708 411.438C535.708 392.698 556.878 362.438 570.448 330.258C587.448 290.058 594.128 246.358 602.268 203.758L628.388 67.1179L640.908 1.59784C641.178 0.187866 639.018 -0.402161 638.738 0.997864L612.928 135.998C604.538 179.918 597.108 224.148 587.268 267.768C578.498 306.598 565.728 345.548 540.458 376.978C529.268 390.898 515.838 403.138 500.278 412.028C483.281 421.572 464.281 426.994 444.808 427.858C360.098 432.208 295.188 369.468 235.298 318.738C206.758 294.578 174.978 269.738 136.298 266.418C119.578 264.968 102.098 267.618 87.3876 276.008C74.114 283.737 63.8072 295.684 58.1076 309.948C45.4576 340.728 52.3276 375.398 69.7576 402.778C79.5276 418.078 92.1076 431.408 105.708 443.308C119.608 455.458 134.878 468.168 151.928 475.548C166.448 481.828 184.338 483.258 197.998 473.998C210.198 465.718 214.058 451.058 210.568 437.188C202.968 406.978 172.378 389.528 143.318 385.838C114.498 382.188 83.9476 390.618 61.7076 409.458C33.4176 433.458 26.6276 470.918 18.4876 505.168C10.7876 537.608 -2.20238 577.438 -36.3924 590.668C-63.7024 601.238 -99.8924 589.898 -112.392 562.398C-125.042 534.618 -105.392 496.758 -75.1024 491.678C-38.8024 485.578 -13.0024 525.238 -13.3724 557.288C-13.7424 589.338 -34.3724 620.678 -63.5924 633.888C-94.0124 647.618 -130.012 637.978 -153.352 615.248C-164.75 604.314 -172.662 590.255 -176.092 574.838C-176.402 573.408 -178.562 574.028 -178.292 575.408Z" fill="#9A97ED"/>
</svg>
