<svg width="518" height="781" viewBox="0 0 518 781" fill="none" xmlns="http://www.w3.org/2000/svg">
<path d="M5.31006 0.779958C-5.70994 33.72 0.520056 72.12 23.0901 98.86C43.0901 122.51 76.5101 137.44 107.16 127.55C134.32 118.78 157.49 90.83 152.5 61.17C148.1 35 120.64 13.26 94.0001 17.65C67.0001 22.09 54.0001 50.83 56.0601 75.76C58.5101 106.06 81.7901 127.76 108.61 138.87C144.22 153.67 183.18 150.62 220.85 151.59C256 152.49 295.07 158.09 321.15 184.13C348.15 211.05 349.41 252.96 334.28 286.19C326.61 303.03 315.28 318.05 302.18 331.04C288.9 344.22 273.42 355.59 255.92 362.5C223.82 375.16 181.03 370.65 161.38 339.1C152.86 325.41 149.57 308.01 154.67 292.5C159.67 277.31 172.57 266.33 187.49 261.39C202.59 256.338 219.065 257.379 233.41 264.29C248.29 271.56 260.03 284.13 267.81 298.61C286.97 334.3 279.43 376.76 265.81 412.93C252.74 447.64 233.87 481.78 234.62 519.93C234.92 535.42 238.34 551.18 246.55 564.47C255 578.1 268.08 587.6 283 593.23C320.25 607.35 360.81 597.03 399.09 605C430.55 611.56 459.4 628.89 480.76 652.8C491.486 664.754 500.194 678.376 506.54 693.13C514.1 710.88 516.54 730.35 524.44 747.96C530.64 761.76 541.58 775.19 556.79 779.15C574.72 783.82 591.94 773.93 607.55 766.45C622.38 759.33 642 753 656.61 764C657.77 764.87 658.89 762.91 657.74 762.06C644.74 752.28 627.35 755.68 613.34 761.39C596.03 768.45 578.19 781.74 558.47 777.25C540.47 773.17 529.47 756.04 523.53 739.82C517.3 722.64 514.36 704.55 506.61 687.89C493.56 659.79 471.42 636.13 444.79 620.43C431.45 612.533 416.964 606.758 401.85 603.31C382.69 598.99 363 599.31 343.47 599.23C308 599 265.89 595 246.78 560.37C229.16 528.37 237.78 490.03 250.05 457.94C264.19 421.06 282.61 385.19 281.6 344.61C280.79 312.48 266.04 278.94 236.55 263.37C211.84 250.37 177.9 254.74 160.18 277.49C141.51 301.49 150.34 337.34 172.92 355.49C199.42 376.78 236.92 375 266.07 360.41C296.82 344.99 323.62 316.57 337.25 285.01C350.5 254.32 350.33 216.49 328.88 189.43C308.78 164.07 275.37 153.73 244.32 150.69C204.32 146.79 163.22 153.08 124.12 141.89C94.2101 133.34 63.8701 113.21 58.8301 80.27C54.7101 53.32 69.1801 19.87 100.14 19.34C115.01 19.09 129.28 26.85 138.84 37.93C149.252 49.744 153.189 65.9226 149.37 81.2C145.47 96.76 134.65 110.11 121.17 118.54C106.945 127.378 89.8665 130.407 73.4701 127C38.2001 119.94 11.9201 89.71 4.47006 55.33C0.621677 37.4057 1.65776 18.7769 7.47006 1.38996C7.94006 -4.1604e-05 5.77006 -0.590042 5.31006 0.779958Z" fill="#9A97ED"/>
</svg>
