<svg width="72" height="72" viewBox="0 0 72 72" fill="none" xmlns="http://www.w3.org/2000/svg">
<circle cx="36" cy="36" r="36" fill="#232340"/>
<path d="M26.9463 32.5781L23.7119 42H20.8115L17.5508 32.5781H20.3018L22.2617 39.7324H22.3145L24.2656 32.5781H26.9463ZM27.8867 42V32.5781H30.4531V42H27.8867ZM30.1455 31.1543C29.8818 31.4121 29.5566 31.541 29.1699 31.541C28.7832 31.541 28.458 31.4121 28.1943 31.1543C27.9307 30.8965 27.7988 30.583 27.7988 30.2139C27.7988 29.8389 27.9307 29.5254 28.1943 29.2734C28.458 29.0156 28.7832 28.8867 29.1699 28.8867C29.5566 28.8867 29.8818 29.0156 30.1455 29.2734C30.4092 29.5254 30.541 29.8389 30.541 30.2139C30.541 30.583 30.4092 30.8965 30.1455 31.1543ZM36.3945 34.2744C35.8379 34.2744 35.3721 34.4648 34.9971 34.8457C34.6279 35.2266 34.4199 35.7129 34.373 36.3047H38.3721C38.3428 35.7012 38.1465 35.2119 37.7832 34.8369C37.4258 34.4619 36.9629 34.2744 36.3945 34.2744ZM38.4072 39.1172H40.7627C40.6221 40.043 40.1592 40.79 39.374 41.3584C38.5947 41.9209 37.625 42.2021 36.4648 42.2021C35.0176 42.2021 33.8809 41.7686 33.0547 40.9014C32.2344 40.0342 31.8242 38.8447 31.8242 37.333C31.8242 35.8271 32.2344 34.626 33.0547 33.7295C33.875 32.8271 34.9795 32.376 36.3682 32.376C37.7334 32.376 38.8203 32.8037 39.6289 33.6592C40.4375 34.5146 40.8418 35.6602 40.8418 37.0957V37.8779H34.3467V38.0361C34.3467 38.71 34.543 39.2578 34.9355 39.6797C35.334 40.0957 35.8584 40.3037 36.5088 40.3037C36.9775 40.3037 37.3818 40.1982 37.7217 39.9873C38.0615 39.7705 38.29 39.4805 38.4072 39.1172ZM55.335 32.5781L52.8389 42H50.1055L48.4004 35.3379H48.3477L46.6514 42H43.9531L41.4482 32.5781H44.0322L45.4561 39.5654H45.5088L47.1787 32.5781H49.6396L51.3184 39.5654H51.3711L52.8037 32.5781H55.335Z" fill="white"/>
</svg>
